<?xml version="1.0" encoding="UTF-8" standalone="no" ?>
<!DOCTYPE svg PUBLIC "-//W3C//DTD SVG 1.1//EN" "http://www.w3.org/Graphics/SVG/1.1/DTD/svg11.dtd">
<svg xmlns="http://www.w3.org/2000/svg" xmlns:xlink="http://www.w3.org/1999/xlink" version="1.1" width="500" height="500" viewBox="0 0 500 500" xml:space="preserve">
<desc>Created with Fabric.js 4.4.0</desc>
<defs>
</defs>
<rect x="0" y="0" width="100%" height="100%" fill="white"></rect>
<g transform="matrix(1 0 0 1 250 250)" id="bd8ce677-b734-4b64-9b18-339300c60d43"  >
<circle style="stroke: rgb(163,163,163); stroke-width: 1; stroke-dasharray: none; stroke-linecap: butt; stroke-dashoffset: 0; stroke-linejoin: miter; stroke-miterlimit: 4; fill: rgb(163,163,163); fill-rule: nonzero; opacity: 1;"  cx="0" cy="0" r="168.47" />
</g>
<g transform="matrix(1 0 0 1 245.5 145)" id="e7914786-97e2-41d5-b9d7-c8bc99a6d950"  >
<polygon style="stroke: rgb(0,0,0); stroke-width: 1; stroke-dasharray: none; stroke-linecap: butt; stroke-dashoffset: 0; stroke-linejoin: miter; stroke-miterlimit: 4; fill: rgb(0,0,0); fill-rule: nonzero; opacity: 1;"  points="150.5,-4 179.5,35 194.5,-46 63.5,-117 -194.5,-53 -194.5,85 -149.5,117 -101.5,99 -96.5,0 150.5,-4 " />
</g>
<g transform="matrix(1 0 0 1 305 230)"  >
<g style=""   >
		<g transform="matrix(1 0 0 1 -55.5 0)" id="a4ba6a87-9300-4f30-9ebf-b974250fe154"  >
<rect style="stroke: rgb(112,112,112); stroke-width: 1; stroke-dasharray: none; stroke-linecap: butt; stroke-dashoffset: 0; stroke-linejoin: miter; stroke-miterlimit: 4; fill: rgb(112,112,112); fill-rule: nonzero; opacity: 1;"  x="-22" y="-15.53" rx="0" ry="0" width="44" height="31.06" />
</g>
		<g transform="matrix(1 0 0 1 55.5 0)" id="a4ba6a87-9300-4f30-9ebf-b974250fe154"  >
<rect style="stroke: rgb(112,112,112); stroke-width: 1; stroke-dasharray: none; stroke-linecap: butt; stroke-dashoffset: 0; stroke-linejoin: miter; stroke-miterlimit: 4; fill: rgb(112,112,112); fill-rule: nonzero; opacity: 1;"  x="-22" y="-15.53" rx="0" ry="0" width="44" height="31.06" />
</g>
</g>
</g>
<g transform="matrix(1 0 0 1 293.5 316.5)" id="ab102d4a-885b-452c-acfa-8fe380797437"  >
<path style="stroke: rgb(110,110,110); stroke-width: 1; stroke-dasharray: none; stroke-linecap: butt; stroke-dashoffset: 0; stroke-linejoin: miter; stroke-miterlimit: 4; fill: rgb(110,110,110); fill-rule: nonzero; opacity: 1;"  transform=" translate(-293.5, -316.5)" d="M 350.25 323.75 L 236.75 323.75 C 232.74593556372676 323.75 229.5 320.50406443627327 229.5 316.5 C 229.5 312.49593556372673 232.74593556372676 309.25 236.75 309.25 L 350.25 309.25 C 354.25406443627327 309.25 357.5 312.49593556372673 357.5 316.5 C 357.5 320.50406443627327 354.25406443627327 323.75 350.25 323.75 Z" stroke-linecap="round" />
</g>
</svg>